<?xml version="1.0" encoding="utf-8"?>
<svg version="1.2" baseProfile="tiny-ps" id="zimoxy-bimi" xmlns="http://www.w3.org/2000/svg" xmlns:xlink="http://www.w3.org/1999/xlink" viewBox="0 0 512 512">
	<title>Zimoxy, Inc.</title>
	<linearGradient id="zimoxy_blue_gradient" x1="104.222" y1="-1.63711" x2="87.9459" y2="24.7477">
    		<stop stop-color="#3366FF"/>
   		<stop offset="1" stop-color="#7194FF"/>
	</linearGradient>
	<path fill="#121212" d="M0 0 L512 0 L512 512 L0 512 Z" />
	<path fill="#FFFFFF" d="M123.3,269.2l-3,17.6H57l2.4-14.4l38.5-37.4H66.8l2.9-17.6h61.5l-2.4,14.4l-38.3,37.3H123.3z"/>
	<path fill="#FFFFFF" d="M259.7,254.6l-6.4,32.2h-22.2l5.7-28.8l0.2-2.1c0-3.6-1.7-5.4-5-5.4c-4,0-7.1,2.9-9.1,8.6l-5.5,27.7h-22.2 l5.7-28.8l0.2-2.1c0-3.6-1.7-5.4-5-5.4c-1.8,0-3.6,0.8-5.3,2.3c-1.8,1.6-3.1,4.1-4,7.6l-5.2,26.4h-22.2l10.7-54.2h22.2l-1.3,6.7 c4.4-5,9.7-7.5,15.9-7.5c4.6,0,8.3,1.1,11,3.3c2.7,2.1,4.5,4.9,5.5,8.3c5.6-7.7,12-11.6,19.3-11.6c5.8,0,10.2,1.7,13.1,5.2 c3,3.5,4.4,7.6,4.4,12.5C260.2,251.1,260,252.7,259.7,254.6z"/>
	<path fill="#FFFFFF" d="M290.6,287.6c-6.2,0-11.4-1.1-15.6-3.4c-4.3-2.4-7.5-5.6-9.4-9.4c-2-3.8-3-7.9-3-12.4 c0-6.7,1.5-12.3,4.5-16.8c3.2-4.7,7.4-8.2,12.5-10.4c5-2.2,10.5-3.3,16.5-3.3c6.3,0,11.6,1.1,15.6,3.3c4.3,2.4,7.4,5.5,9.3,9.3 c1.9,3.8,2.9,8,2.9,12.5c0,9.5-3.1,17-9.4,22.5C308.3,284.9,300.3,287.6,290.6,287.6z M292.3,270.5c3.1,0,5.4-1.2,6.9-3.6 c1.5-2.3,2.3-5.1,2.3-8.3c0-2.6-0.6-4.8-1.7-6.5c-1.2-1.8-3-2.6-5.4-2.6c-3.1,0-5.4,1.2-6.9,3.6c-1.5,2.3-2.3,5.1-2.3,8.3 c0,2.6,0.6,4.8,1.7,6.5C288,269.6,289.8,270.5,292.3,270.5z"/>
	<path fill="#FFFFFF" d="M371.5,259l12.1,27.8h-25.1l-4.1-14.1l-11.3,14.1h-25l23.7-27.7l-11.2-26.4h25l3.5,12.7l10.1-12.7h24.8 L371.5,259z"/>
	<path fill="#FFFFFF" d="M395.4,307c-7,0-13.1-2.3-18.2-6.8l11.1-13.6c1.7,1.7,3.7,2.6,5.9,2.6c1.7,0,3.2-0.3,4.5-1 c1.3-0.7,2.5-1.7,3.7-3.1l-11.7-52.5h22.4l4.3,30.9l15.1-30.9H455l-33.8,58.7C415.4,301.8,406.9,307,395.4,307z"/>
	<path fill-rule="evenodd" fill="#FFFFFF" d="M149.7,286.8l10.8-54.1h-22.1l-10.8,54.1H149.7z"/>
	<path d="M93.6406 22.3957C87.8686 22.3957 84.7669 19.3506 84.3357 13.2606C84.3357 10.2483 85.0323 7.79264 86.4256 5.89359C87.9183 3.79809 89.6931 2.30832 91.7498 1.42429C93.8728 0.474762 95.9959 0 98.1189 0C103.825 0 106.943 3.04502 107.474 9.13507C107.474 12.0819 106.81 14.5212 105.483 16.4529C104.156 18.4175 102.431 19.8909 100.308 20.8731C98.2184 21.8881 95.9959 22.3957 93.6406 22.3957Z" fill="url(#zimoxy_blue_gradient)"/>
</svg>
