<svg width="398" height="101" viewBox="0 0 398 101" fill="none" xmlns="http://www.w3.org/2000/svg">
<title>Zimoxy</title>
<path d="M66.2913 63.1745L63.3319 80.8H0L2.36755 66.4422L40.8895 29.0623H9.76613L12.6269 11.4863H74.0845L71.717 25.8441L33.3923 63.1745H66.2913Z" fill="#121212"/>
<path d="M202.717 48.6186L196.305 80.8H174.11L179.831 51.9853L180.028 49.9059C180.028 46.2752 178.351 44.4598 174.997 44.4598C170.953 44.4598 167.928 47.3314 165.922 53.0745L160.397 80.8H138.202L143.923 51.9853L144.121 49.9059C144.121 46.2752 142.444 44.4598 139.09 44.4598C137.281 44.4598 135.505 45.2355 133.763 46.7868C131.987 48.4041 130.639 50.9291 129.718 54.3618L124.49 80.8H102.294L112.948 26.6363H135.144L133.861 33.3696C138.267 28.3526 143.562 25.8441 149.744 25.8441C154.38 25.8441 158.063 26.9333 160.792 29.1118C163.488 31.2572 165.33 34.0297 166.316 37.4294C171.874 29.7059 178.319 25.8441 185.651 25.8441C191.439 25.8441 195.812 27.577 198.771 31.0427C201.731 34.5083 203.211 38.6837 203.211 43.5686C203.211 45.0539 203.046 46.7373 202.717 48.6186Z" fill="#121212"/>
<path d="M233.574 81.5922C227.359 81.5922 222.164 80.4699 217.988 78.2255C213.647 75.783 210.523 72.6639 208.616 68.8681C206.643 65.0724 205.657 60.9301 205.657 56.4412C205.657 49.7408 207.153 44.1297 210.145 39.6078C213.335 34.8879 217.495 31.4057 222.624 29.1613C227.655 26.9498 233.147 25.8441 239.098 25.8441C245.445 25.8441 250.657 26.9498 254.734 29.1613C259.042 31.5377 262.149 34.6239 264.056 38.4196C265.963 42.2154 266.917 46.3742 266.917 50.8961C266.917 60.402 263.793 67.8944 257.546 73.3735C251.298 78.8526 243.307 81.5922 233.574 81.5922ZM235.251 64.4618C238.342 64.4618 240.644 63.2735 242.157 60.8971C243.669 58.5536 244.425 55.781 244.425 52.5794C244.425 49.9719 243.866 47.81 242.748 46.0936C241.597 44.3443 239.789 43.4696 237.323 43.4696C234.232 43.4696 231.93 44.6578 230.417 47.0343C228.905 49.3778 228.149 52.1503 228.149 55.352C228.149 57.9595 228.708 60.1214 229.826 61.8377C230.976 63.5871 232.785 64.4618 235.251 64.4618Z" fill="#121212"/>
<path d="M314.529 52.9755L326.663 80.8H301.606L297.463 66.7392L286.119 80.8H261.161L284.836 53.0745L273.59 26.6363H298.548L302.001 39.3108L312.063 26.6363H336.824L314.529 52.9755Z" fill="#121212"/>
<path d="M338.417 101C331.446 101 325.362 98.7225 320.167 94.1676L331.314 80.602C333.024 82.3183 334.997 83.1765 337.233 83.1765C338.91 83.1765 340.406 82.8464 341.721 82.1863C343.004 81.5261 344.237 80.5029 345.421 79.1167L333.682 26.6363H356.075L360.415 57.5304L375.508 26.6363H398L364.164 85.3549C358.442 95.785 349.86 101 338.417 101Z" fill="#121212"/>
<path fill-rule="evenodd" clip-rule="evenodd" d="M92.6634 80.8L103.416 26.7353H81.2696L70.517 80.8H92.6634Z" fill="#121212"/>
<path d="M93.6406 22.3957C87.8686 22.3957 84.7669 19.3506 84.3357 13.2606C84.3357 10.2483 85.0323 7.79264 86.4256 5.89359C87.9183 3.79809 89.6931 2.30832 91.7498 1.42429C93.8728 0.474762 95.9959 0 98.1189 0C103.825 0 106.943 3.04502 107.474 9.13507C107.474 12.0819 106.81 14.5212 105.483 16.4529C104.156 18.4175 102.431 19.8909 100.308 20.8731C98.2184 21.8881 95.9959 22.3957 93.6406 22.3957Z" fill="#3366FF"/>
</svg>
