<svg viewBox="0 0 349 88" fill="none" xmlns="http://www.w3.org/2000/svg" class="zimoxy-logo">
  <title>Zimoxy</title>
  <path fill-rule="evenodd" clip-rule="evenodd" d="M61.8353 70.4H61.8207L71.2495 23.2941H71.2641L61.8353 70.4ZM81.2405 70.4H81.2551L90.6839 23.2941H90.6693L81.2405 70.4Z"/>
  <path d="M58.1298 55.0431L55.5348 70.4H0L2.07607 57.8902L35.8554 25.3216H8.56377L11.0723 10.0078H64.9636L62.8875 22.5176L29.2812 55.0431H58.1298Z"/>
  <path d="M61.8353 70.4H81.2405L90.6693 23.2941H71.2641L61.8353 70.4Z"/>
  <path d="M177.76 42.3608L172.137 70.4H152.674L157.691 45.2941L157.864 43.4824C157.864 40.319 156.394 38.7373 153.452 38.7373C149.906 38.7373 147.253 41.2392 145.494 46.2431L140.65 70.4H121.187L126.204 45.2941L126.377 43.4824C126.377 40.319 124.907 38.7373 121.965 38.7373C120.38 38.7373 118.823 39.4131 117.294 40.7647C115.737 42.1739 114.555 44.3739 113.748 47.3647L109.163 70.4H89.7L99.0422 23.2078H118.505L117.381 29.0745C121.245 24.7033 125.887 22.5176 131.308 22.5176C135.373 22.5176 138.603 23.4667 140.996 25.3647C143.36 27.234 144.975 29.6497 145.84 32.6118C150.713 25.8824 156.365 22.5176 162.795 22.5176C167.87 22.5176 171.705 24.0275 174.3 27.0471C176.895 30.0667 178.192 33.7046 178.192 37.9608C178.192 39.2549 178.048 40.7216 177.76 42.3608Z" />
  <path fill-rule="evenodd" clip-rule="evenodd" d="M204.818 71.0902C199.368 71.0902 194.812 70.1124 191.15 68.1569C187.344 66.0288 184.605 63.3111 182.932 60.0039C181.202 56.6967 180.337 53.0876 180.337 49.1765C180.337 43.3386 181.649 38.4497 184.273 34.5098C187.07 30.3974 190.718 27.3634 195.216 25.4078C199.627 23.481 204.443 22.5176 209.662 22.5176C215.227 22.5176 219.797 23.481 223.372 25.4078C227.15 27.4784 229.874 30.1673 231.547 33.4745C233.219 36.7817 234.055 40.4052 234.055 44.3451C234.055 52.6274 231.316 59.1556 225.838 63.9294C220.359 68.7033 213.352 71.0902 204.818 71.0902ZM212.343 53.0588C211.017 55.1294 208.998 56.1647 206.288 56.1647C204.125 56.1647 202.54 55.4026 201.53 53.8784C200.55 52.383 200.06 50.4993 200.06 48.2275C200.06 45.4379 200.723 43.0222 202.049 40.9804C203.376 38.9098 205.394 37.8745 208.105 37.8745C210.267 37.8745 211.853 38.6366 212.862 40.1608C213.843 41.6562 214.333 43.5399 214.333 45.8118C214.333 48.6013 213.67 51.017 212.343 53.0588Z" />
  <path d="M286.446 70.4L275.806 46.1569L293.176 25.7661V23.2078H292.6H273.643L264.82 34.251L261.792 23.2078H239.907L249.769 46.2431L229.008 70.4H250.893L260.841 58.149L264.474 70.4H286.446Z" />
  <path d="M280.749 82.0471C285.305 86.0157 290.639 88 296.752 88C306.787 88 314.312 83.4562 319.33 74.3686L349 23.2078H329.277L316.042 50.1255L312.236 23.2078H295.355H293.176V25.7661L302.894 68.9333C301.856 70.1412 300.775 71.0327 299.65 71.6078C298.497 72.183 297.185 72.4706 295.714 72.4706C293.754 72.4706 292.024 71.7229 290.524 70.2275L280.749 82.0471Z" />
  <path d="M73.5996 11.6471C73.5996 9.00131 73.9644 7.36303 75.4162 5.17647C76.727 3.20211 78.2564 2.02745 80.0441 1.25098C81.8895 0.416994 83.7349 0 85.5803 0C90.5397 0 93.2502 2.67451 93.7115 8.02353C93.7115 10.6118 93.1348 12.7542 91.9815 14.451C90.8281 16.1765 89.3287 17.4706 87.4833 18.3333C85.6668 19.2248 83.7349 19.6706 81.6876 19.6706L81.679 19.6706C76.6674 19.6675 73.9743 16.993 73.5996 11.6471Z" id="zimoxy_blue" />
  <defs>
    <linearGradient id="zimoxy" x1="99.5" y1="-12.5" x2="72.5" y2="41.5" gradientUnits="userSpaceOnUse">
      <stop stop-color="#3366FF" />
      <stop offset="1" stop-color="#B4C6FF" />
    </linearGradient>
    <linearGradient id="zimoxy-white" x1="99.5" y1="-12.5" x2="72.5" y2="41.5" gradientUnits="userSpaceOnUse">
      <stop stop-color="#FFFFFF" />
      <stop offset="1" stop-color="#FFFFFF" />
    </linearGradient>
  </defs>
</svg>
